REM MD5 c23917fc2caaa337108c75f62a0e4c75
FILE "DemoDemo PlayStation Vol. 15 (Japan).bin" BINARY
  TRACK 01 MODE2/2352
    INDEX 01 00:00:00
  TRACK 02 AUDIO
    INDEX 00 32:10:43
    INDEX 01 32:12:43
  TRACK 03 AUDIO
    INDEX 00 33:42:65
    INDEX 01 33:44:65
  TRACK 04 AUDIO
    INDEX 00 34:43:58
    INDEX 01 34:45:58
  TRACK 05 AUDIO
    INDEX 00 35:30:62
    INDEX 01 35:32:62
REM LEADOUT 38:19:21
